<svg xmlns="http://www.w3.org/2000/svg" width="820" height="562" viewBox="0 0 820 562" role="img" aria-label="v8 score distribution">
<rect width="820" height="562" fill="#F6F8FB"/>
<text x="42.0" y="52.0" font-family="Arial, 'PingFang SC', 'Microsoft YaHei', sans-serif" font-size="26" font-weight="800" fill="#172033" text-anchor="start">v8.1 main-only 分数分布</text>
<text x="42.0" y="80.0" font-family="Arial, 'PingFang SC', 'Microsoft YaHei', sans-serif" font-size="14" font-weight="400" fill="#526071" text-anchor="start">蓝色为正常文本，红色为垃圾文本；重叠越多，zero-shot 越难校准</text>
<rect x="630" y="38" width="14" height="14" rx="3" fill="#2F6FED"/>
<text x="650.0" y="51.0" font-family="Arial, 'PingFang SC', 'Microsoft YaHei', sans-serif" font-size="12" font-weight="400" fill="#526071" text-anchor="start">normal</text>
<rect x="630" y="60" width="14" height="14" rx="3" fill="#E05D44"/>
<text x="650.0" y="73.0" font-family="Arial, 'PingFang SC', 'Microsoft YaHei', sans-serif" font-size="12" font-weight="400" fill="#526071" text-anchor="start">spam</text>
<rect x="42" y="112" width="360" height="180" rx="6" fill="#FFFFFF" stroke="#D9DEE8"/>
<text x="58.0" y="140.0" font-family="Arial, 'PingFang SC', 'Microsoft YaHei', sans-serif" font-size="13" font-weight="700" fill="#253044" text-anchor="start">main_holdout</text>
<line x1="78" y1="274" x2="372" y2="274" stroke="#B8C0CC"/>
<rect x="78.0" y="162.0" width="6.2" height="112.0" fill="#2F6FED" opacity="0.78"/>
<rect x="85.3" y="274.0" width="6.2" height="0.0" fill="#E05D44" opacity="0.78"/>
<rect x="92.7" y="261.9" width="6.2" height="12.1" fill="#2F6FED" opacity="0.78"/>
<rect x="100.0" y="274.0" width="6.2" height="0.0" fill="#E05D44" opacity="0.78"/>
<rect x="107.4" y="269.1" width="6.2" height="4.9" fill="#2F6FED" opacity="0.78"/>
<rect x="114.8" y="273.9" width="6.2" height="0.1" fill="#E05D44" opacity="0.78"/>
<rect x="122.1" y="271.4" width="6.2" height="2.6" fill="#2F6FED" opacity="0.78"/>
<rect x="129.4" y="274.0" width="6.2" height="0.0" fill="#E05D44" opacity="0.78"/>
<rect x="136.8" y="272.3" width="6.2" height="1.7" fill="#2F6FED" opacity="0.78"/>
<rect x="144.2" y="274.0" width="6.2" height="0.0" fill="#E05D44" opacity="0.78"/>
<rect x="151.5" y="272.4" width="6.2" height="1.6" fill="#2F6FED" opacity="0.78"/>
<rect x="158.8" y="274.0" width="6.2" height="0.0" fill="#E05D44" opacity="0.78"/>
<rect x="166.2" y="273.2" width="6.2" height="0.8" fill="#2F6FED" opacity="0.78"/>
<rect x="173.5" y="273.9" width="6.2" height="0.1" fill="#E05D44" opacity="0.78"/>
<rect x="180.9" y="273.3" width="6.2" height="0.7" fill="#2F6FED" opacity="0.78"/>
<rect x="188.2" y="274.0" width="6.2" height="0.0" fill="#E05D44" opacity="0.78"/>
<rect x="195.6" y="273.4" width="6.2" height="0.6" fill="#2F6FED" opacity="0.78"/>
<rect x="202.9" y="274.0" width="6.2" height="0.0" fill="#E05D44" opacity="0.78"/>
<rect x="210.3" y="273.5" width="6.2" height="0.5" fill="#2F6FED" opacity="0.78"/>
<rect x="217.6" y="273.9" width="6.2" height="0.1" fill="#E05D44" opacity="0.78"/>
<rect x="225.0" y="273.7" width="6.2" height="0.3" fill="#2F6FED" opacity="0.78"/>
<rect x="232.3" y="274.0" width="6.2" height="0.0" fill="#E05D44" opacity="0.78"/>
<rect x="239.7" y="273.7" width="6.2" height="0.3" fill="#2F6FED" opacity="0.78"/>
<rect x="247.0" y="274.0" width="6.2" height="0.0" fill="#E05D44" opacity="0.78"/>
<rect x="254.4" y="273.8" width="6.2" height="0.2" fill="#2F6FED" opacity="0.78"/>
<rect x="261.8" y="273.9" width="6.2" height="0.1" fill="#E05D44" opacity="0.78"/>
<rect x="269.1" y="273.7" width="6.2" height="0.3" fill="#2F6FED" opacity="0.78"/>
<rect x="276.5" y="274.0" width="6.2" height="0.0" fill="#E05D44" opacity="0.78"/>
<rect x="283.8" y="273.8" width="6.2" height="0.2" fill="#2F6FED" opacity="0.78"/>
<rect x="291.1" y="273.9" width="6.2" height="0.1" fill="#E05D44" opacity="0.78"/>
<rect x="298.5" y="273.8" width="6.2" height="0.2" fill="#2F6FED" opacity="0.78"/>
<rect x="305.9" y="273.6" width="6.2" height="0.4" fill="#E05D44" opacity="0.78"/>
<rect x="313.2" y="273.9" width="6.2" height="0.1" fill="#2F6FED" opacity="0.78"/>
<rect x="320.6" y="273.7" width="6.2" height="0.3" fill="#E05D44" opacity="0.78"/>
<rect x="327.9" y="273.8" width="6.2" height="0.2" fill="#2F6FED" opacity="0.78"/>
<rect x="335.2" y="273.5" width="6.2" height="0.5" fill="#E05D44" opacity="0.78"/>
<rect x="342.6" y="273.9" width="6.2" height="0.1" fill="#2F6FED" opacity="0.78"/>
<rect x="349.9" y="272.8" width="6.2" height="1.2" fill="#E05D44" opacity="0.78"/>
<rect x="357.3" y="274.0" width="6.2" height="0.0" fill="#2F6FED" opacity="0.78"/>
<rect x="364.7" y="261.4" width="6.2" height="12.6" fill="#E05D44" opacity="0.78"/>
<text x="78.0" y="294.0" font-family="Arial, 'PingFang SC', 'Microsoft YaHei', sans-serif" font-size="10" font-weight="400" fill="#6B7280" text-anchor="middle">0</text>
<text x="372.0" y="294.0" font-family="Arial, 'PingFang SC', 'Microsoft YaHei', sans-serif" font-size="10" font-weight="400" fill="#6B7280" text-anchor="middle">1</text>
<text x="225.0" y="294.0" font-family="Arial, 'PingFang SC', 'Microsoft YaHei', sans-serif" font-size="10" font-weight="400" fill="#6B7280" text-anchor="middle">score</text>
<rect x="432" y="112" width="360" height="180" rx="6" fill="#FFFFFF" stroke="#D9DEE8"/>
<text x="448.0" y="140.0" font-family="Arial, 'PingFang SC', 'Microsoft YaHei', sans-serif" font-size="13" font-weight="700" fill="#253044" text-anchor="start">fbs_mixed_holdout</text>
<line x1="468" y1="274" x2="762" y2="274" stroke="#B8C0CC"/>
<rect x="468.0" y="162.0" width="6.2" height="112.0" fill="#2F6FED" opacity="0.78"/>
<rect x="475.4" y="267.5" width="6.2" height="6.5" fill="#E05D44" opacity="0.78"/>
<rect x="482.7" y="262.4" width="6.2" height="11.6" fill="#2F6FED" opacity="0.78"/>
<rect x="490.1" y="269.7" width="6.2" height="4.3" fill="#E05D44" opacity="0.78"/>
<rect x="497.4" y="269.3" width="6.2" height="4.7" fill="#2F6FED" opacity="0.78"/>
<rect x="504.8" y="269.6" width="6.2" height="4.4" fill="#E05D44" opacity="0.78"/>
<rect x="512.1" y="271.7" width="6.2" height="2.3" fill="#2F6FED" opacity="0.78"/>
<rect x="519.5" y="269.3" width="6.2" height="4.7" fill="#E05D44" opacity="0.78"/>
<rect x="526.8" y="272.3" width="6.2" height="1.7" fill="#2F6FED" opacity="0.78"/>
<rect x="534.1" y="268.8" width="6.2" height="5.2" fill="#E05D44" opacity="0.78"/>
<rect x="541.5" y="272.7" width="6.2" height="1.3" fill="#2F6FED" opacity="0.78"/>
<rect x="548.9" y="268.9" width="6.2" height="5.1" fill="#E05D44" opacity="0.78"/>
<rect x="556.2" y="273.3" width="6.2" height="0.7" fill="#2F6FED" opacity="0.78"/>
<rect x="563.6" y="267.7" width="6.2" height="6.3" fill="#E05D44" opacity="0.78"/>
<rect x="570.9" y="273.3" width="6.2" height="0.7" fill="#2F6FED" opacity="0.78"/>
<rect x="578.2" y="268.3" width="6.2" height="5.7" fill="#E05D44" opacity="0.78"/>
<rect x="585.6" y="273.6" width="6.2" height="0.4" fill="#2F6FED" opacity="0.78"/>
<rect x="593.0" y="267.6" width="6.2" height="6.4" fill="#E05D44" opacity="0.78"/>
<rect x="600.3" y="273.7" width="6.2" height="0.3" fill="#2F6FED" opacity="0.78"/>
<rect x="607.6" y="266.9" width="6.2" height="7.1" fill="#E05D44" opacity="0.78"/>
<rect x="615.0" y="273.6" width="6.2" height="0.4" fill="#2F6FED" opacity="0.78"/>
<rect x="622.4" y="266.4" width="6.2" height="7.6" fill="#E05D44" opacity="0.78"/>
<rect x="629.7" y="273.8" width="6.2" height="0.2" fill="#2F6FED" opacity="0.78"/>
<rect x="637.1" y="265.8" width="6.2" height="8.2" fill="#E05D44" opacity="0.78"/>
<rect x="644.4" y="273.7" width="6.2" height="0.3" fill="#2F6FED" opacity="0.78"/>
<rect x="651.8" y="266.2" width="6.2" height="7.8" fill="#E05D44" opacity="0.78"/>
<rect x="659.1" y="273.9" width="6.2" height="0.1" fill="#2F6FED" opacity="0.78"/>
<rect x="666.5" y="265.1" width="6.2" height="8.9" fill="#E05D44" opacity="0.78"/>
<rect x="673.8" y="273.9" width="6.2" height="0.1" fill="#2F6FED" opacity="0.78"/>
<rect x="681.1" y="265.2" width="6.2" height="8.8" fill="#E05D44" opacity="0.78"/>
<rect x="688.5" y="273.9" width="6.2" height="0.1" fill="#2F6FED" opacity="0.78"/>
<rect x="695.9" y="265.9" width="6.2" height="8.1" fill="#E05D44" opacity="0.78"/>
<rect x="703.2" y="273.9" width="6.2" height="0.1" fill="#2F6FED" opacity="0.78"/>
<rect x="710.6" y="264.2" width="6.2" height="9.8" fill="#E05D44" opacity="0.78"/>
<rect x="717.9" y="273.8" width="6.2" height="0.2" fill="#2F6FED" opacity="0.78"/>
<rect x="725.2" y="264.2" width="6.2" height="9.8" fill="#E05D44" opacity="0.78"/>
<rect x="732.6" y="273.9" width="6.2" height="0.1" fill="#2F6FED" opacity="0.78"/>
<rect x="739.9" y="265.1" width="6.2" height="8.9" fill="#E05D44" opacity="0.78"/>
<rect x="747.3" y="273.9" width="6.2" height="0.1" fill="#2F6FED" opacity="0.78"/>
<rect x="754.6" y="270.2" width="6.2" height="3.8" fill="#E05D44" opacity="0.78"/>
<text x="468.0" y="294.0" font-family="Arial, 'PingFang SC', 'Microsoft YaHei', sans-serif" font-size="10" font-weight="400" fill="#6B7280" text-anchor="middle">0</text>
<text x="762.0" y="294.0" font-family="Arial, 'PingFang SC', 'Microsoft YaHei', sans-serif" font-size="10" font-weight="400" fill="#6B7280" text-anchor="middle">1</text>
<text x="615.0" y="294.0" font-family="Arial, 'PingFang SC', 'Microsoft YaHei', sans-serif" font-size="10" font-weight="400" fill="#6B7280" text-anchor="middle">score</text>
<rect x="42" y="332" width="360" height="180" rx="6" fill="#FFFFFF" stroke="#D9DEE8"/>
<text x="58.0" y="360.0" font-family="Arial, 'PingFang SC', 'Microsoft YaHei', sans-serif" font-size="13" font-weight="700" fill="#253044" text-anchor="start">hf_chinese_spam_10000_holdout</text>
<line x1="78" y1="494" x2="372" y2="494" stroke="#B8C0CC"/>
<rect x="78.0" y="382.0" width="6.2" height="112.0" fill="#2F6FED" opacity="0.78"/>
<rect x="85.3" y="383.0" width="6.2" height="111.0" fill="#E05D44" opacity="0.78"/>
<rect x="92.7" y="465.7" width="6.2" height="28.3" fill="#2F6FED" opacity="0.78"/>
<rect x="100.0" y="463.9" width="6.2" height="30.1" fill="#E05D44" opacity="0.78"/>
<rect x="107.4" y="482.1" width="6.2" height="11.9" fill="#2F6FED" opacity="0.78"/>
<rect x="114.8" y="478.3" width="6.2" height="15.7" fill="#E05D44" opacity="0.78"/>
<rect x="122.1" y="486.4" width="6.2" height="7.6" fill="#2F6FED" opacity="0.78"/>
<rect x="129.4" y="485.7" width="6.2" height="8.3" fill="#E05D44" opacity="0.78"/>
<rect x="136.8" y="489.2" width="6.2" height="4.8" fill="#2F6FED" opacity="0.78"/>
<rect x="144.2" y="489.1" width="6.2" height="4.9" fill="#E05D44" opacity="0.78"/>
<rect x="151.5" y="491.0" width="6.2" height="3.0" fill="#2F6FED" opacity="0.78"/>
<rect x="158.8" y="491.3" width="6.2" height="2.7" fill="#E05D44" opacity="0.78"/>
<rect x="166.2" y="491.5" width="6.2" height="2.5" fill="#2F6FED" opacity="0.78"/>
<rect x="173.5" y="492.7" width="6.2" height="1.3" fill="#E05D44" opacity="0.78"/>
<rect x="180.9" y="491.7" width="6.2" height="2.3" fill="#2F6FED" opacity="0.78"/>
<rect x="188.2" y="492.5" width="6.2" height="1.5" fill="#E05D44" opacity="0.78"/>
<rect x="195.6" y="491.9" width="6.2" height="2.1" fill="#2F6FED" opacity="0.78"/>
<rect x="202.9" y="493.0" width="6.2" height="1.0" fill="#E05D44" opacity="0.78"/>
<rect x="210.3" y="492.8" width="6.2" height="1.2" fill="#2F6FED" opacity="0.78"/>
<rect x="217.6" y="493.2" width="6.2" height="0.8" fill="#E05D44" opacity="0.78"/>
<rect x="225.0" y="493.5" width="6.2" height="0.5" fill="#2F6FED" opacity="0.78"/>
<rect x="232.3" y="493.3" width="6.2" height="0.7" fill="#E05D44" opacity="0.78"/>
<rect x="239.7" y="493.3" width="6.2" height="0.7" fill="#2F6FED" opacity="0.78"/>
<rect x="247.0" y="493.6" width="6.2" height="0.4" fill="#E05D44" opacity="0.78"/>
<rect x="254.4" y="493.1" width="6.2" height="0.9" fill="#2F6FED" opacity="0.78"/>
<rect x="261.8" y="493.8" width="6.2" height="0.2" fill="#E05D44" opacity="0.78"/>
<rect x="269.1" y="493.9" width="6.2" height="0.1" fill="#2F6FED" opacity="0.78"/>
<rect x="276.5" y="493.8" width="6.2" height="0.2" fill="#E05D44" opacity="0.78"/>
<rect x="283.8" y="493.8" width="6.2" height="0.2" fill="#2F6FED" opacity="0.78"/>
<rect x="291.1" y="493.8" width="6.2" height="0.2" fill="#E05D44" opacity="0.78"/>
<rect x="298.5" y="493.7" width="6.2" height="0.3" fill="#2F6FED" opacity="0.78"/>
<rect x="305.9" y="493.7" width="6.2" height="0.3" fill="#E05D44" opacity="0.78"/>
<rect x="313.2" y="493.7" width="6.2" height="0.3" fill="#2F6FED" opacity="0.78"/>
<rect x="320.6" y="493.8" width="6.2" height="0.2" fill="#E05D44" opacity="0.78"/>
<rect x="327.9" y="493.9" width="6.2" height="0.1" fill="#2F6FED" opacity="0.78"/>
<rect x="335.2" y="494.0" width="6.2" height="0.0" fill="#E05D44" opacity="0.78"/>
<rect x="342.6" y="494.0" width="6.2" height="0.0" fill="#2F6FED" opacity="0.78"/>
<rect x="349.9" y="493.9" width="6.2" height="0.1" fill="#E05D44" opacity="0.78"/>
<rect x="357.3" y="494.0" width="6.2" height="0.0" fill="#2F6FED" opacity="0.78"/>
<rect x="364.7" y="494.0" width="6.2" height="0.0" fill="#E05D44" opacity="0.78"/>
<text x="78.0" y="514.0" font-family="Arial, 'PingFang SC', 'Microsoft YaHei', sans-serif" font-size="10" font-weight="400" fill="#6B7280" text-anchor="middle">0</text>
<text x="372.0" y="514.0" font-family="Arial, 'PingFang SC', 'Microsoft YaHei', sans-serif" font-size="10" font-weight="400" fill="#6B7280" text-anchor="middle">1</text>
<text x="225.0" y="514.0" font-family="Arial, 'PingFang SC', 'Microsoft YaHei', sans-serif" font-size="10" font-weight="400" fill="#6B7280" text-anchor="middle">score</text>
<rect x="432" y="332" width="360" height="180" rx="6" fill="#FFFFFF" stroke="#D9DEE8"/>
<text x="448.0" y="360.0" font-family="Arial, 'PingFang SC', 'Microsoft YaHei', sans-serif" font-size="13" font-weight="700" fill="#253044" text-anchor="start">hf_chinese_conversation_spam_holdout</text>
<line x1="468" y1="494" x2="762" y2="494" stroke="#B8C0CC"/>
<rect x="468.0" y="382.0" width="6.2" height="112.0" fill="#2F6FED" opacity="0.78"/>
<rect x="475.4" y="482.8" width="6.2" height="11.2" fill="#E05D44" opacity="0.78"/>
<rect x="482.7" y="469.5" width="6.2" height="24.5" fill="#2F6FED" opacity="0.78"/>
<rect x="490.1" y="485.7" width="6.2" height="8.3" fill="#E05D44" opacity="0.78"/>
<rect x="497.4" y="482.5" width="6.2" height="11.5" fill="#2F6FED" opacity="0.78"/>
<rect x="504.8" y="487.4" width="6.2" height="6.6" fill="#E05D44" opacity="0.78"/>
<rect x="512.1" y="486.7" width="6.2" height="7.3" fill="#2F6FED" opacity="0.78"/>
<rect x="519.5" y="489.6" width="6.2" height="4.4" fill="#E05D44" opacity="0.78"/>
<rect x="526.8" y="489.3" width="6.2" height="4.7" fill="#2F6FED" opacity="0.78"/>
<rect x="534.1" y="489.6" width="6.2" height="4.4" fill="#E05D44" opacity="0.78"/>
<rect x="541.5" y="490.9" width="6.2" height="3.1" fill="#2F6FED" opacity="0.78"/>
<rect x="548.9" y="490.4" width="6.2" height="3.6" fill="#E05D44" opacity="0.78"/>
<rect x="556.2" y="491.9" width="6.2" height="2.1" fill="#2F6FED" opacity="0.78"/>
<rect x="563.6" y="490.2" width="6.2" height="3.8" fill="#E05D44" opacity="0.78"/>
<rect x="570.9" y="492.8" width="6.2" height="1.2" fill="#2F6FED" opacity="0.78"/>
<rect x="578.2" y="490.4" width="6.2" height="3.6" fill="#E05D44" opacity="0.78"/>
<rect x="585.6" y="492.6" width="6.2" height="1.4" fill="#2F6FED" opacity="0.78"/>
<rect x="593.0" y="491.0" width="6.2" height="3.0" fill="#E05D44" opacity="0.78"/>
<rect x="600.3" y="492.6" width="6.2" height="1.4" fill="#2F6FED" opacity="0.78"/>
<rect x="607.6" y="491.6" width="6.2" height="2.4" fill="#E05D44" opacity="0.78"/>
<rect x="615.0" y="493.0" width="6.2" height="1.0" fill="#2F6FED" opacity="0.78"/>
<rect x="622.4" y="490.7" width="6.2" height="3.3" fill="#E05D44" opacity="0.78"/>
<rect x="629.7" y="493.5" width="6.2" height="0.5" fill="#2F6FED" opacity="0.78"/>
<rect x="637.1" y="491.0" width="6.2" height="3.0" fill="#E05D44" opacity="0.78"/>
<rect x="644.4" y="493.6" width="6.2" height="0.4" fill="#2F6FED" opacity="0.78"/>
<rect x="651.8" y="489.8" width="6.2" height="4.2" fill="#E05D44" opacity="0.78"/>
<rect x="659.1" y="493.9" width="6.2" height="0.1" fill="#2F6FED" opacity="0.78"/>
<rect x="666.5" y="489.7" width="6.2" height="4.3" fill="#E05D44" opacity="0.78"/>
<rect x="673.8" y="493.8" width="6.2" height="0.2" fill="#2F6FED" opacity="0.78"/>
<rect x="681.1" y="490.6" width="6.2" height="3.4" fill="#E05D44" opacity="0.78"/>
<rect x="688.5" y="493.8" width="6.2" height="0.2" fill="#2F6FED" opacity="0.78"/>
<rect x="695.9" y="489.0" width="6.2" height="5.0" fill="#E05D44" opacity="0.78"/>
<rect x="703.2" y="493.7" width="6.2" height="0.3" fill="#2F6FED" opacity="0.78"/>
<rect x="710.6" y="488.0" width="6.2" height="6.0" fill="#E05D44" opacity="0.78"/>
<rect x="717.9" y="493.7" width="6.2" height="0.3" fill="#2F6FED" opacity="0.78"/>
<rect x="725.2" y="486.8" width="6.2" height="7.2" fill="#E05D44" opacity="0.78"/>
<rect x="732.6" y="493.9" width="6.2" height="0.1" fill="#2F6FED" opacity="0.78"/>
<rect x="739.9" y="483.4" width="6.2" height="10.6" fill="#E05D44" opacity="0.78"/>
<rect x="747.3" y="494.0" width="6.2" height="0.0" fill="#2F6FED" opacity="0.78"/>
<rect x="754.6" y="478.5" width="6.2" height="15.5" fill="#E05D44" opacity="0.78"/>
<text x="468.0" y="514.0" font-family="Arial, 'PingFang SC', 'Microsoft YaHei', sans-serif" font-size="10" font-weight="400" fill="#6B7280" text-anchor="middle">0</text>
<text x="762.0" y="514.0" font-family="Arial, 'PingFang SC', 'Microsoft YaHei', sans-serif" font-size="10" font-weight="400" fill="#6B7280" text-anchor="middle">1</text>
<text x="615.0" y="514.0" font-family="Arial, 'PingFang SC', 'Microsoft YaHei', sans-serif" font-size="10" font-weight="400" fill="#6B7280" text-anchor="middle">score</text>
</svg>
